<svg xmlns="http://www.w3.org/2000/svg" xmlns:xlink="http://www.w3.org/1999/xlink" xmlns:lucid="lucid" width="1720" height="1380"><g transform="translate(-40 620)" lucid:page-tab-id="0_0"><path d="M0-1258.83h1870.87v2581.66H0z" fill="#fff"/><path d="M140-538a30 30 0 0 1 30-30h1540a30 30 0 0 1 30 30V710a30 30 0 0 1-30 30H170a30 30 0 0 1-30-30z" stroke="#474747" fill-opacity="0"/><path d="M248-565.6v3.54c0 6.42-7.1 13.05-15.76 13.05h-46.48c-8.66 0-15.75-6.64-15.75-13.06v-3.54z" fill="#9d5125"/><path d="M200.03-600c8.03 0 14.82 4.4 18.17 11.67 4.6-3.14 10.92-1.98 14.04 2.65 1.17 1.64 1.7 3.32 1.8 5.3 7.87.68 13.95 8.25 13.95 14.27v1.3c0 6.45-7.1 13-15.76 13h-46.5c-8.64 0-15.74-6.55-15.74-13v-1.3c0-5.02 4.2-11.87 10.06-13.56v-.57c.08-10.95 8.97-19.82 19.97-19.77z" fill="#f58535"/><path d="M189.54-576.87l-5.2 18.2h3.04l1.17-4.43h5.38l1.1 4.43h3.05l-4.8-18.2zm-.47 11.4l2.22-8.98 2.1 8.97zM211.2-562.66h-.03l-2.47-14.2h-3.1l-2.4 14.13h-.06l-2.4-14.14h-2.95l3.53 18.2h3.38l2.35-13.7h.06l2.36 13.7h3.4l3.64-18.2h-2.9l-2.4 14.2zM225.9-568.6l-1.98-.72c-1.93-.7-2.74-1.53-2.74-3.1-.17-1.26.74-2.43 2-2.6.16-.02.3-.02.45-.02 1.26-.17 2.4.72 2.58 1.96.04.25.03.44 0 .68v.38h2.93v-.4c0-1.9-.5-4.8-5.18-4.8-3.44 0-5.7 1.84-5.7 5.16 0 2.6 1.1 3.97 3.82 5l2 .68c1.6.23 2.73 1.6 2.64 3.2.04 1.45-1.08 2.64-2.5 2.68h-.28c-2 0-3-1.12-3-3.33v-.47h-2.9v.44c0 2.54 1.02 5.53 5.52 5.53 3.7 0 6.07-1.6 6.07-5.48.04-2.5-1.1-3.9-3.7-4.8z" fill="#fff"/><use xlink:href="#a" transform="matrix(1,0,0,1,140,710) translate(745.5246913580247 11.11111111111111)"/><use xlink:href="#b" transform="matrix(1,0,0,1,140,710) translate(801.4506172839506 11.11111111111111)"/><path d="M560-390.35a30 30 0 0 1 30-30h700a30 30 0 0 1 30 30v380.7a30 30 0 0 1-30 30H590a30 30 0 0 1-30-30z" fill-opacity="0"/><path d="M572.37-414.62l4-2.46 4.36-1.8 4.58-1.1H600m14.67-.02l29.36-.02m14.68 0l29.37-.02m14.7 0l29.35-.02m14.68 0l29.36-.02m14.68 0l29.36-.03m14.7-.02h29.35m14.68-.02h29.36m14.67-.02l29.36-.02m14.7 0l29.35-.02m14.68 0l29.36-.02m14.68 0l29.36-.03m14.7 0l29.35-.02m14.7 0l29.35-.02m14.68 0l29.36-.02m14.68 0l29.36-.02m14.68 0H1290l4.7.36 4.57 1.1 4.35 1.8m10.65 9.1l2.46 4 1.8 4.36 1.1 4.57v14.28m.03 14.27l.03 28.55m0 14.27l.03 28.55m0 14.28l.04 28.54m0 14.27l.04 28.55m.02 14.27l.03 28.54m0 14.27l.04 28.56m0 14.28l.03 28.54m.02 14.28l.02 28.55m.02 14.28v14.27l-.37 4.7-1.1 4.57-1.8 4.35m-9.1 10.65l-4 2.46-4.36 1.8-4.58 1.1H1280m-14.67.02l-29.36.02m-14.68 0l-29.37.02m-14.7 0l-29.35.02m-14.68 0l-29.36.02m-14.68 0l-29.36.03m-14.7.02h-29.35m-14.68.02H971.7m-14.67.02l-29.36.02m-14.7 0l-29.35.02m-14.68 0l-29.36.02m-14.68 0l-29.36.03m-14.7 0l-29.35.02m-14.7 0l-29.35.02m-14.68 0l-29.36.02m-14.68 0l-29.36.02m-14.68 0H590l-4.7-.36-4.57-1.1-4.35-1.8m-10.65-9.1l-2.46-4-1.8-4.36-1.1-4.57v-14.28m-.03-14.27l-.03-28.55m0-14.27l-.03-28.55m0-14.28l-.04-28.54m0-14.27l-.04-28.55m-.02-14.27l-.03-28.54m0-14.27l-.04-28.56m0-14.28l-.03-28.54m-.02-14.28l-.02-28.55M560-376.1v-14.27l.37-4.7 1.1-4.57 1.8-4.35" stroke="#f7981f" stroke-width="3" fill="none"/><use xlink:href="#c" transform="matrix(1,0,0,1,560,-9.645669291348895) translate(290.27777777777777 11.11111111111111)"/><use xlink:href="#d" transform="matrix(1,0,0,1,560,-9.645669291348895) translate(400.64814814814815 11.11111111111111)"/><use xlink:href="#e" transform="matrix(1,0,0,1,560,-9.645669291348895) translate(457.37654320987656 11.11111111111111)"/><path d="M560 156.1a30 30 0 0 1 30-30h700a30 30 0 0 1 30 30v407.8a30 30 0 0 1-30 30H590a30 30 0 0 1-30-30z" fill-opacity="0"/><path d="M572.37 131.84l4-2.46 4.36-1.8 4.58-1.1H600m14.67-.02h29.36m14.68-.02l29.37-.02m14.7 0l29.35-.02m14.68 0l29.36-.02m14.68 0l29.36-.03m14.7 0l29.35-.02m14.68 0l29.36-.02m14.67 0h29.36m14.7-.02l29.35-.02m14.68 0l29.36-.02m14.68 0l29.36-.02m14.7 0l29.35-.03m14.7 0l29.35-.03m14.68 0l29.36-.02m14.68 0l29.36-.03m14.68 0H1290l4.7.36 4.57 1.1 4.35 1.8m10.65 9.1l2.46 4 1.8 4.36 1.1 4.58v15.27m.03 15.27l.03 30.55m0 15.28l.03 30.55m0 15.28l.04 30.55m0 15.28l.04 30.56m.02 15.27l.03 30.55m0 15.27l.04 30.56m0 15.27l.03 30.56m.02 15.28l.02 30.56m.02 15.27v15.3l-.37 4.68-1.1 4.58-1.8 4.35m-9.1 10.66l-4 2.46-4.36 1.8-4.58 1.1H1280m-14.67.02h-29.36m-14.68.02l-29.37.02m-14.7 0l-29.35.02m-14.68 0l-29.36.02m-14.68 0l-29.36.03m-14.7 0l-29.35.02m-14.68 0l-29.36.02m-14.67 0h-29.36m-14.7.02l-29.35.02m-14.68 0l-29.36.02m-14.68 0l-29.36.02m-14.7 0l-29.35.03m-14.7 0l-29.35.03m-14.68 0l-29.36.02m-14.68 0l-29.36.03m-14.68 0H590l-4.7-.36-4.57-1.1-4.35-1.8m-10.65-9.1l-2.46-4-1.8-4.36-1.1-4.58V553.3m-.03-15.27l-.03-30.55m0-15.28l-.03-30.55m0-15.28l-.04-30.55m0-15.28l-.04-30.56m-.02-15.27l-.03-30.55m0-15.27l-.04-30.56m0-15.27l-.03-30.56m-.02-15.28l-.02-30.56M560 171.4v-15.3l.37-4.68 1.1-4.58 1.8-4.35" stroke="#f7981f" stroke-width="3" fill="none"/><use xlink:href="#c" transform="matrix(1,0,0,1,560,563.8913385826979) translate(290.27777777777777 11.11111111111111)"/><use xlink:href="#d" transform="matrix(1,0,0,1,560,563.8913385826979) translate(400.64814814814815 11.11111111111111)"/><use xlink:href="#f" transform="matrix(1,0,0,1,560,563.8913385826979) translate(457.37654320987656 11.11111111111111)"/><path d="M220-458a30 30 0 0 1 30-30h1380a30 30 0 0 1 30 30V630a30 30 0 0 1-30 30H250a30 30 0 0 1-30-30z" stroke="#474747" fill-opacity="0"/><path d="M328-485.6v3.54c0 6.42-7.1 13.05-15.76 13.05h-46.48c-8.66 0-15.75-6.64-15.75-13.06v-3.54z" fill="#9d5125"/><path d="M280.03-520c8.03 0 14.82 4.4 18.17 11.67 4.6-3.14 10.92-1.98 14.04 2.65 1.17 1.64 1.7 3.32 1.8 5.3 7.87.68 13.95 8.25 13.95 14.27v1.3c0 6.45-7.1 13-15.76 13h-46.5c-8.64 0-15.74-6.55-15.74-13v-1.3c0-5.02 4.2-11.87 10.06-13.56v-.57c.08-10.95 8.97-19.82 19.97-19.77z" fill="#f58535"/><path d="M268.9-496.87h3.08l3.1 14.58 3.32-14.54h3.1l-4.6 18.2h-3.7zM283.37-496.87h5.77c3.5 0 5.04 2.2 5.04 5.3 0 3.1-1.9 5.4-5.33 5.4h-2.57v7.53h-2.9zm2.9 8.5h2.08c1.56 0 2.9-.83 2.9-3.14 0-1.98-.78-3.17-3.1-3.17h-1.87zM307.8-485.17v.38c0 3.32-1.3 6.52-5.6 6.52-4.6 0-6.04-2.97-6.04-9.47s1.43-9.46 6.05-9.46c5.2 0 5.54 3.8 5.54 5.7v.37h-2.9v-.3c0-1.7-.5-3.64-2.6-3.57-2.08.08-3.1 1.35-3.1 7.22 0 5.87.92 7.3 3.14 7.3 2.42 0 2.7-2.7 2.7-4.42v-.3z" fill="#fff"/><use xlink:href="#g" transform="matrix(1,0,0,1,219.99999999999983,630) translate(626.1172839506173 11.11111111111111)"/><use xlink:href="#h" transform="matrix(1,0,0,1,219.99999999999983,630) translate(677.9074074074074 11.11111111111111)"/><use xlink:href="#i" transform="matrix(1,0,0,1,219.99999999999983,630) translate(691.425925925926 11.11111111111111)"/><path d="M580-298a30 30 0 0 1 30-30h320a30 30 0 0 1 30 30v228a30 30 0 0 1-30 30H610a30 30 0 0 1-30-30z" stroke="#474747" fill-opacity="0"/><path d="M641.97-339.76v-5.9c0-7.25-5.88-13.13-13.12-13.13-7.24 0-13.12 5.9-13.12 13.14v5.9h6.64v-5.9c0-3.58 2.9-6.5 6.48-6.5 3.57 0 6.48 2.92 6.48 6.5v5.9h6.64z" fill="#876a22"/><path d="M641.98-339.74h5.42v20.83H610v-20.84h5.72v-7.1c0-7.28 5.87-13.16 13.13-13.16 7.26 0 13.13 5.88 13.13 13.15v7.1zm-6.66 0v-7.1c0-3.6-2.88-6.5-6.47-6.5-3.6 0-6.47 2.9-6.47 6.5v7.1h12.94z" fill="#daa835"/><path d="M610-318.9h37.4v.9H610z" fill="#876a22"/><use xlink:href="#j" transform="matrix(1,0,0,1,580,-70.00000000000006) translate(112.28395061728396 11.11111111111111)"/><use xlink:href="#k" transform="matrix(1,0,0,1,580,-70.00000000000006) translate(178.82716049382717 11.11111111111111)"/><use xlink:href="#e" transform="matrix(1,0,0,1,580,-70.00000000000006) translate(255.37037037037038 11.11111111111111)"/><path d="M580 263.42a30 30 0 0 1 30-30h320a30 30 0 0 1 30 30v228a30 30 0 0 1-30 30H610a30 30 0 0 1-30-30z" stroke="#474747" fill-opacity="0"/><path d="M641.97 221.66v-5.9c0-7.26-5.88-13.14-13.12-13.14-7.24 0-13.12 5.88-13.12 13.14v5.9h6.64v-5.9c0-3.58 2.9-6.5 6.48-6.5 3.57 0 6.48 2.92 6.48 6.5v5.9h6.64z" fill="#876a22"/><path d="M641.98 221.68h5.42v20.83H610V221.7h5.72v-7.1c0-7.3 5.87-13.16 13.13-13.16 7.26 0 13.13 5.87 13.13 13.15v7.1zm-6.66 0v-7.1c0-3.6-2.88-6.5-6.47-6.5-3.6 0-6.47 2.9-6.47 6.5v7.1h12.94z" fill="#daa835"/><path d="M610 242.5h37.4v.9H610z" fill="#876a22"/><use xlink:href="#j" transform="matrix(1,0,0,1,580,491.4173228346044) translate(112.28395061728396 11.11111111111111)"/><use xlink:href="#k" transform="matrix(1,0,0,1,580,491.4173228346044) translate(178.82716049382717 11.11111111111111)"/><use xlink:href="#f" transform="matrix(1,0,0,1,580,491.4173228346044) translate(255.37037037037038 11.11111111111111)"/><path d="M1022-278a30 30 0 0 1 30-30h192a30 30 0 0 1 30 30v188a30 30 0 0 1-30 30h-192a30 30 0 0 1-30-30z" stroke="#474747" fill-opacity="0"/><path d="M1083.97-319.76v-5.9c0-7.25-5.88-13.13-13.12-13.13-7.24 0-13.12 5.9-13.12 13.14v5.9h6.64v-5.9c0-3.58 2.9-6.5 6.48-6.5 3.57 0 6.48 2.92 6.48 6.5v5.9h6.64z" fill="#876a22"/><path d="M1083.98-319.74h5.42v20.83H1052v-20.84h5.72v-7.1c0-7.28 5.87-13.16 13.13-13.16 7.26 0 13.13 5.88 13.13 13.15v7.1zm-6.66 0v-7.1c0-3.6-2.88-6.5-6.47-6.5-3.6 0-6.47 2.9-6.47 6.5v7.1h12.94z" fill="#daa835"/><path d="M1052-298.9h37.4v.9H1052z" fill="#876a22"/><use xlink:href="#l" transform="matrix(1,0,0,1,1022,-90) translate(43.96296296296296 11.11111111111111)"/><use xlink:href="#k" transform="matrix(1,0,0,1,1022,-90) translate(119.14814814814815 11.11111111111111)"/><use xlink:href="#e" transform="matrix(1,0,0,1,1022,-90) translate(195.69135802469137 11.11111111111111)"/><path d="M1000 263.42a30 30 0 0 1 30-30h200a30 30 0 0 1 30 30V450a30 30 0 0 1-30 30h-200a30 30 0 0 1-30-30z" stroke="#474747" fill-opacity="0"/><path d="M1061.97 221.66v-5.9c0-7.26-5.88-13.14-13.12-13.14-7.24 0-13.12 5.88-13.12 13.14v5.9h6.64v-5.9c0-3.58 2.9-6.5 6.48-6.5 3.57 0 6.48 2.92 6.48 6.5v5.9h6.64z" fill="#876a22"/><path d="M1061.98 221.68h5.42v20.83H1030V221.7h5.72v-7.1c0-7.3 5.87-13.16 13.13-13.16 7.26 0 13.13 5.87 13.13 13.15v7.1zm-6.66 0v-7.1c0-3.6-2.88-6.5-6.47-6.5-3.6 0-6.47 2.9-6.47 6.5v7.1h12.94z" fill="#daa835"/><path d="M1030 242.5h37.4v.9H1030z" fill="#876a22"/><use xlink:href="#l" transform="matrix(1,0,0,1,1000,450.0000000000001) translate(47.96296296296296 11.11111111111111)"/><use xlink:href="#k" transform="matrix(1,0,0,1,1000,450.0000000000001) translate(123.14814814814815 11.11111111111111)"/><use xlink:href="#f" transform="matrix(1,0,0,1,1000,450.0000000000001) translate(199.69135802469137 11.11111111111111)"/><path d="M980-330a30 30 0 0 1 30-30h260a30 30 0 0 1 30 30v840a30 30 0 0 1-30 30h-260a30 30 0 0 1-30-30z" fill-opacity="0"/><path d="M986.6-348.66l1.3-1.53m7.9-6.18l.58-.35 4.35-1.8 4.58-1.1 15.76-.02m15.76-.02h3.15m15.75-.03l31.52-.04m15.75-.03h3.14m15.76-.02l31.5-.04m15.76-.02h3.16m15.75-.03l31.5-.03m15.77-.02h3.15m15.74-.03L1270-360l4.7.37 4.57 1.1.62.26m8.76 4.87l1.53 1.3m6.18 7.9l.35.58 1.8 4.35 1.1 4.58v15.48m0 15.47l.02 3.1m0 15.46l.02 30.95m0 15.47v3.1m0 15.47l.02 30.93m0 15.47v3.1m0 15.47l.02 30.94m0 15.48v3.1m.02 15.46v30.94m.02 15.47v3.1m0 15.47l.02 30.94m0 15.47v3.1m0 15.46l.03 30.94m0 15.47l.02 3.1m0 15.47l.02 30.94m0 15.48v3.1m0 15.47l.02 30.94m0 15.46v3.1m.02 15.46v30.95m.02 15.47v3.1m0 15.46l.02 30.94m0 15.47v3.1m.02 15.48v30.94m.02 15.47v3.08m0 15.47l.02 30.94m0 15.46v3.1m0 15.47L1300 510l-.37 4.7-1.1 4.57-.26.62m-4.87 8.76l-1.3 1.53m-7.9 6.18l-.58.35-4.35 1.8-4.58 1.1-15.76.02m-15.76.02h-3.15m-15.75.03l-31.52.04m-15.75.03h-3.14m-15.76.02l-31.5.04m-15.76.02h-3.16m-15.75.03l-31.5.03m-15.77.02h-3.15m-15.74.03L1010 540l-4.7-.37-4.57-1.1-.62-.26m-8.76-4.87l-1.53-1.3m-6.18-7.9l-.35-.58-1.8-4.35-1.1-4.58V499.2m0-15.47l-.02-3.1m0-15.46l-.02-30.95m0-15.47v-3.1m0-15.47l-.02-30.93m0-15.47v-3.1m0-15.47l-.02-30.94m0-15.48v-3.1m-.02-15.46v-30.94m-.02-15.47v-3.1m0-15.47l-.02-30.94m0-15.47v-3.1m0-15.46l-.03-30.94m0-15.47l-.02-3.1m0-15.47l-.02-30.94m0-15.48v-3.1m0-15.47l-.02-30.94m0-15.46v-3.1m-.02-15.46v-30.95m-.02-15.47v-3.1m0-15.46l-.02-30.94m0-15.47v-3.1m-.02-15.48v-30.94m-.02-15.47v-3.08m0-15.47l-.02-30.94m0-15.46v-3.1m0-15.47L980-330l.37-4.7 1.1-4.57.26-.62" stroke="#474747" stroke-width="3" fill="none"/><use xlink:href="#m" transform="matrix(1,0,0,1,980,510) translate(66.26543209876544 11.11111111111111)"/><use xlink:href="#n" transform="matrix(1,0,0,1,980,510) translate(118.11728395061729 11.11111111111111)"/><use xlink:href="#o" transform="matrix(1,0,0,1,980,510) translate(197.00617283950618 11.11111111111111)"/><path d="M980-313.3a6 6 0 0 1 6-6h308a6 6 0 0 1 6 6V434a6 6 0 0 1-6 6H986a6 6 0 0 1-6-6z" stroke="#dd3522" stroke-width="3" fill="#fff" fill-opacity="0"/><use xlink:href="#p" transform="matrix(1,0,0,1,980,-299.2913385826978) translate(100.07499999999999 14.4)"/><use xlink:href="#q" transform="matrix(1,0,0,1,980,-299.2913385826978) translate(169.975 14.4)"/><path d="M82.44 65.68H61.7c-.95 0-1.7-.77-1.7-1.7v-2.55c0-9.48 6.23-17.44 15.5-19.66.4-.1.8-.05 1.2.16 2.73 1.46 5.68 1.46 8.4 0 .4-.2.8-.26 1.22-.16 2.43.6 4.43 1.46 6.5 2.85l-1.9 2.82c-1.55-1-3-1.67-4.8-2.15-3.45 1.57-7 1.57-10.43 0-7.4 2.05-12.3 8.5-12.3 16.13v.84h19.04z" stroke="#fff" stroke-opacity="0" fill="#232f3e"/><path d="M80.88 46.36c-6.17 0-11.17-5-11.17-11.15s5-11.14 11.18-11.14c6.16-.07 11.2 4.88 11.26 11 .04 4.27-2.1 7.9-5.86 9.9-1.72.97-3.4 1.4-5.4 1.4zm0-18.9c-4.3 0-7.83 3.45-7.85 7.75 0 2.93 1.48 5.43 4.06 6.8 2.43 1.32 5.12 1.32 7.57 0 2.6-1.4 4.1-3.94 4.06-6.9-.05-4.26-3.57-7.67-7.85-7.63zM138.32 65.68h-20.75v-3.4h19.04v-.84c0-7.66-4.9-14.1-12.25-16.16-3.45 1.6-7 1.6-10.46 0-1.82.5-3.3 1.2-4.84 2.27l-1.94-2.8c2.07-1.44 4.08-2.35 6.5-2.97.44-.1.86-.05 1.26.17 2.7 1.46 5.7 1.46 8.42 0 .4-.22.8-.27 1.2-.17C133.76 44 140 51.96 140 61.44v2.54c0 .93-.76 1.67-1.68 1.7z" stroke="#fff" stroke-opacity="0" fill="#232f3e"/><path d="M119.08 46.36c-6.2 0-11.23-5.06-11.23-11.26s5.06-11.2 11.28-11.2c6.2 0 11.23 5.05 11.23 11.25 0 4.22-2.14 7.8-5.85 9.83-1.75.95-3.44 1.38-5.42 1.38zm0-18.9c-4.3-.02-7.8 3.44-7.83 7.75-.02 2.93 1.46 5.43 4.05 6.8 2.43 1.32 5.13 1.32 7.6 0 2.62-1.4 4.13-3.96 4.08-6.94-.1-4.27-3.62-7.7-7.9-7.6zM127.2 103.9H72.73c-.92 0-1.67-.76-1.67-1.7v-3.6C71 85.5 79.67 74.5 92.4 71.4c.46-.12.86-.05 1.27.14 4.04 2.18 8.5 2.18 12.6 0 .34-.2.75-.26 1.2-.13 12.78 3.07 21.45 14.07 21.4 27.2v3.6c0 .94-.76 1.7-1.68 1.7zm-52.72-3.4h50.97v-1.9c0-11.27-7.28-20.74-18.2-23.67-4.8 2.3-9.83 2.3-14.62 0-10.93 2.93-18.15 12.4-18.15 23.66z" stroke="#fff" stroke-opacity="0" fill="#232f3e"/><path d="M100.02 76.53c-2.7 0-5-.58-7.4-1.86-7.4-4.07-10.13-13.34-6.1-20.77 4.1-7.4 13.38-10.12 20.83-6.1 7.42 4.08 10.15 13.35 6.1 20.78-1.47 2.7-3.4 4.62-6.1 6.1-2.36 1.27-4.66 1.85-7.33 1.85zm0-26.76c-4.44-.06-8.28 2.17-10.42 6.1-3.07 5.65-.98 12.74 4.7 15.83 3.67 1.96 7.7 1.96 11.4 0 3.95-2.14 6.22-5.96 6.16-10.43-.1-6.42-5.4-11.6-11.84-11.5z" stroke="#fff" stroke-opacity="0" fill="#232f3e"/><path d="M138.78 65.68H99.06c-.68 0-1.23-.55-1.23-1.24V61.8c-.04-9.54 6.3-17.57 15.56-19.82.33-.1.63-.05.92.1 2.95 1.58 6.2 1.58 9.2 0 .25-.15.54-.2.88-.1 9.32 2.23 15.64 10.26 15.6 19.83v2.64c0 .7-.55 1.24-1.22 1.24zm-38.46-2.47h37.2v-1.4c0-8.2-5.32-15.12-13.3-17.26-3.5 1.7-7.16 1.7-10.66 0-7.97 2.14-13.24 9.05-13.24 17.27z" stroke="#fff" stroke-opacity="0" stroke-width=".73" fill="#fff" fill-opacity="0"/><path d="M100.94 65.68H61.22c-.67 0-1.22-.55-1.22-1.24V61.8c-.04-9.54 6.28-17.57 15.56-19.82.34-.1.63-.05.93.1 2.94 1.58 6.2 1.58 9.18 0 .25-.15.55-.2.88-.1 9.32 2.23 15.65 10.26 15.6 19.83v2.64c0 .7-.54 1.24-1.22 1.24zM62.5 63.2h37.18v-1.4c0-8.2-5.3-15.12-13.28-17.26-3.5 1.7-7.17 1.7-10.67 0C67.76 46.68 62.5 53.6 62.5 61.8z" stroke="#fff" stroke-opacity="0" stroke-width=".73" fill="#fff" fill-opacity="0"/><use xlink:href="#r" transform="matrix(1,0,0,1,30,112.89133858269788) translate(41.04938271604939 17.77777777777778)"/><path d="M333.73 56.25c0 31.8-25.76 57.63-57.5 57.63s-57.5-25.82-57.5-57.63c0-31.8 25.76-57.63 57.5-57.63s57.5 25.82 57.5 57.63z" fill="#9d5025"/><path d="M218.73 51.52h115v4.72h-115v-4.72z" fill="#9d5025"/><path d="M333.73 51.52c0 31.8-25.76 57.63-57.5 57.63s-57.5-25.82-57.5-57.63c0-31.8 25.76-57.63 57.5-57.63s57.5 25.8 57.5 57.62z" fill="#f58536"/><path d="M232.87 57.25v-1.5c.43-7 4.33-12.8 10.66-15.86.6-12.87 11.52-22.8 24.42-22.13 8.06.38 14.8 4.5 18.88 11.48 6.6-2.78 14.12.27 16.9 6.82.43.94.7 1.7.86 2.66 8.65 1.72 14.9 10.03 14.9 17.02v1.4c0 8.53-8.85 16-18.9 16h-48.93c-9.96.07-18.8-7.42-18.8-15.9z" fill="#fff"/><path d="M288 35.38l-3.67 2.53-1.87-4.05c-2.85-6.34-8.7-10.23-15.66-10.27h-.08c-9.5 0-17.3 7.78-17.3 17.4v3.22l-2.7.8c-4.57 1.82-7.56 5.84-7.94 10.78v1.4c0 4.67 5.7 10.1 12.96 10.1h49c7.34 0 12.95-5.43 12.95-10.1v-1.4c0-4.72-5.25-10.88-11.32-11.36l-3.3-.26-.22-3.28c0-1.4-.45-2.53-1.2-3.67-2.17-3.18-6.5-3.96-9.66-1.78z" fill="#f58536"/><use xlink:href="#s" transform="matrix(1,0,0,1,218.72641509433961,113.89133858269787) translate(20.524691358024697 17.77777777777778)"/><use xlink:href="#t" transform="matrix(1,0,0,1,218.72641509433961,113.89133858269787) translate(16.172839506172842 44.44444444444444)"/><path d="M680-268.82c0 15.9-14.72 28.8-32.86 28.8-18.13 0-32.85-12.9-32.85-28.8s14.7-28.82 32.84-28.82c18.14 0 32.86 12.9 32.86 28.82z" fill="#9d5025"/><path d="M680-271.2c0 15.92-14.72 28.83-32.86 28.83-18.13 0-32.85-12.9-32.85-28.8 0-15.92 14.7-28.83 32.84-28.83 18.14 0 32.86 12.9 32.86 28.8z" fill="#f58536"/><path d="M656.03-284.57h3.47v26.75h-3.47v-26.75zM665.78-277.8l9.07 6.48-9.07 6.74v-13.2z" fill="#fff"/><path d="M633.7-272.7l2 1.4-2.2 1.63h33.8v-3.03h-33.6zM633.5-283.04h26v-3.04h-25.8l1.98 1.4-2.18 1.64zM635.68-257.92l-2.18 1.62h26v-3.03h-25.8l1.98 1.4zM626.28-276.48l7.25 5.18-7.25 5.4v-10.58zM626.28-289.85l7.25 5.18-7.25 5.4v-10.58zM626.28-263.1l7.25 5.18-7.25 5.4v-10.58z" fill="#fff"/><use xlink:href="#u" transform="matrix(1,0,0,1,614.2857142857142,-240) translate(10.191358024691361 17.77777777777778)"/><use xlink:href="#v" transform="matrix(1,0,0,1,614.2857142857142,-240) translate(2.6296296296296298 44.44444444444444)"/><use xlink:href="#e" transform="matrix(1,0,0,1,614.2857142857142,-240) translate(51.0246913580247 44.44444444444444)"/><path d="M680 311.18c0 15.9-14.72 28.8-32.86 28.8-18.13 0-32.85-12.9-32.85-28.8s14.7-28.82 32.84-28.82c18.14 0 32.86 12.9 32.86 28.82z" fill="#9d5025"/><path d="M680 308.8c0 15.92-14.72 28.83-32.86 28.83-18.13 0-32.85-12.9-32.85-28.8 0-15.92 14.7-28.83 32.84-28.83 18.14 0 32.86 12.9 32.86 28.8z" fill="#f58536"/><path d="M656.03 295.43h3.47v26.75h-3.47v-26.75zM665.78 302.2l9.07 6.48-9.07 6.74v-13.2z" fill="#fff"/><path d="M633.7 307.3l2 1.4-2.2 1.63h33.8v-3.03h-33.6zM633.5 296.96h26v-3.04h-25.8l1.98 1.4-2.18 1.64zM635.68 322.08l-2.18 1.62h26v-3.03h-25.8l1.98 1.4zM626.28 303.52l7.25 5.18-7.25 5.4v-10.58zM626.28 290.15l7.25 5.18-7.25 5.4v-10.58zM626.28 316.9l7.25 5.18-7.25 5.4V316.9z" fill="#fff"/><use xlink:href="#u" transform="matrix(1,0,0,1,614.2857142857142,340) translate(10.191358024691361 17.77777777777778)"/><use xlink:href="#v" transform="matrix(1,0,0,1,614.2857142857142,340) translate(2.6296296296296298 44.44444444444444)"/><use xlink:href="#f" transform="matrix(1,0,0,1,614.2857142857142,340) translate(51.0246913580247 44.44444444444444)"/><path d="M432.45 13.9c-22.08 0-40 17.9-40 40 0 22.07 17.92 40 40 40s40-17.93 40-40c0-22.1-17.92-40-40-40zm0 76.8c-20.32 0-36.8-16.5-36.8-36.8 0-20.33 16.48-36.8 36.8-36.8 20.32 0 36.8 16.47 36.8 36.8 0 20.3-16.48 36.8-36.8 36.8z" stroke="#fff" stroke-opacity="0" stroke-width="3" fill="#693cc5"/><path d="M418.06 63.5h-16c-.9 0-1.6-.72-1.6-1.6V45.88c0-.88.7-1.6 1.6-1.6h16c.88 0 1.6.72 1.6 1.6V61.9c0 .88-.72 1.6-1.6 1.6zm-14.4-3.22h12.8V47.5h-12.8zM454.85 42.7h-9.6c-.88 0-1.6-.73-1.6-1.6v-9.6c0-.9.72-1.6 1.6-1.6h9.6c.9 0 1.6.7 1.6 1.6v9.6c0 .87-.7 1.6-1.6 1.6zm-8-3.2h6.4v-6.4h-6.4zM454.85 60.3h-9.6c-.88 0-1.6-.73-1.6-1.6v-9.6c0-.9.72-1.6 1.6-1.6h9.6c.9 0 1.6.7 1.6 1.6v9.6c0 .87-.7 1.6-1.6 1.6zm-8-3.2h6.4v-6.4h-6.4zM454.85 77.9h-9.6c-.88 0-1.6-.73-1.6-1.6v-9.6c0-.9.72-1.6 1.6-1.6h9.6c.9 0 1.6.7 1.6 1.6v9.6c0 .87-.7 1.6-1.6 1.6zm-8-3.2h6.4v-6.4h-6.4zM441.58 55.02l-5.38 5.38-2.26-2.25 2.65-2.66h-13.75v-3.2h13.74l-2.66-2.67 2.26-2.25 5.38 5.38c.64.62.64 1.63.02 2.26h-.02zM440.7 37.1l-1.97 7.36-3.07-.84 1-3.8-14.18 7.48-1.48-2.8 13.85-7.33-3.45-.88.84-3.2 7.36 1.98c.85.2 1.36 1.1 1.12 1.95v.08zM439.6 72.65l-7.35 2.04-.85-3.2 3.44-.95-13.86-7.32 1.5-2.8 14.18 7.48-1-3.74 3.08-.83 1.98 7.35c.24.84-.28 1.73-1.13 1.96z" stroke="#fff" stroke-opacity="0" stroke-width="3" fill="#693cc5"/><use xlink:href="#w" transform="matrix(1,0,0,1,362.45283018867923,102.89133858269787) translate(1.5740740740740762 17.77777777777778)"/><use xlink:href="#x" transform="matrix(1,0,0,1,362.45283018867923,102.89133858269787) translate(89.0432098765432 17.77777777777778)"/><use xlink:href="#y" transform="matrix(1,0,0,1,362.45283018867923,102.89133858269787) translate(26.234567901234563 44.44444444444444)"/><path d="M1184.33-160h-34.36c-2.05 0-3.67-1.63-3.67-3.67v-34.28c0-2.08 1.67-3.75 3.75-3.75h34.2c2.08 0 3.75 1.67 3.75 3.75v34.28c0 2.04-1.63 3.67-3.67 3.67zm-34.28-38.28c-.17 0-.33.16-.33.33v34.28c0 .17.08.25.25.25h34.36c.17 0 .25-.08.25-.25v-34.28c0-.17-.17-.33-.33-.33z" stroke="#fff" stroke-opacity="0" fill="#d86613"/><path d="M1143.1-179.15h-13.84c-2.08-.04-3.75-1.75-3.7-3.84v-34c-.05-2.1 1.62-3.8 3.7-3.85h34.24c2.08 0 3.75 1.67 3.75 3.75v12.4h-3.42V-217c0-.22-.12-.4-.33-.4h-34.24c-.17 0-.33.18-.38.4v34c.05.22.2.4.38.4h13.8z" stroke="#fff" stroke-opacity="0" fill="#d86613"/><path d="M1122.47-198.3h-10.72c-2.08 0-3.75-1.67-3.75-3.75v-34.2c0-2.08 1.67-3.75 3.75-3.75h34.2c2.08 0 3.75 1.67 3.75 3.75v12.3h-3.42v-12.3c0-.16-.16-.33-.33-.33h-34.2c-.16 0-.33.17-.33.33v34.2c0 .17.17.33.33.33h10.72z" stroke="#fff" stroke-opacity="0" fill="#d86613"/><path d="M1163.58-179.15h-34.36c-2.05 0-3.67-1.63-3.67-3.67v-34.28c0-2.08 1.67-3.75 3.75-3.75h34.2c2.08 0 3.75 1.67 3.75 3.75v34.28c0 2.04-1.63 3.67-3.67 3.67zm-34.28-38.28c-.17 0-.33.17-.33.33v34.28c0 .17.08.25.25.25h34.36c.17 0 .25-.08.25-.25v-34.28c0-.16-.17-.33-.33-.33z" stroke="#fff" stroke-opacity="0" fill="#fff" fill-opacity="0"/><path d="M1146.03-198.3h-34.36c-2.04 0-3.67-1.62-3.67-3.67v-34.28c0-2.08 1.67-3.75 3.75-3.75h34.2c2.08 0 3.75 1.67 3.75 3.75v34.28c0 2.05-1.62 3.67-3.67 3.67zm-34.28-38.28c-.16 0-.33.17-.33.33v34.28c0 .17.08.25.25.25h34.36c.17 0 .25-.08.25-.25v-34.28c0-.16-.16-.33-.33-.33z" stroke="#fff" stroke-opacity="0" fill="#fff" fill-opacity="0"/><use xlink:href="#z" transform="matrix(1,0,0,1,1078,-151) translate(46.01851851851852 17.77777777777778)"/><path d="M1176.33 380h-34.36c-2.05 0-3.67-1.63-3.67-3.67v-34.28c0-2.08 1.67-3.75 3.75-3.75h34.2c2.08 0 3.75 1.67 3.75 3.75v34.28c0 2.04-1.63 3.67-3.67 3.67zm-34.28-38.28c-.17 0-.33.16-.33.33v34.28c0 .17.08.25.25.25h34.36c.17 0 .25-.08.25-.25v-34.28c0-.17-.17-.33-.33-.33z" stroke="#fff" stroke-opacity="0" fill="#d86613"/><path d="M1135.1 360.85h-13.84c-2.08-.04-3.75-1.75-3.7-3.84v-34c-.05-2.1 1.62-3.8 3.7-3.85h34.24c2.08 0 3.75 1.67 3.75 3.75v12.4h-3.42V323c0-.22-.12-.4-.33-.4h-34.24c-.17 0-.33.18-.38.4v34c.05.22.2.4.38.4h13.8z" stroke="#fff" stroke-opacity="0" fill="#d86613"/><path d="M1114.47 341.7h-10.72c-2.08 0-3.75-1.67-3.75-3.75v-34.2c0-2.08 1.67-3.75 3.75-3.75h34.2c2.08 0 3.75 1.67 3.75 3.75v12.3h-3.42v-12.3c0-.16-.16-.33-.33-.33h-34.2c-.16 0-.33.17-.33.33v34.2c0 .17.17.33.33.33h10.72z" stroke="#fff" stroke-opacity="0" fill="#d86613"/><path d="M1155.58 360.85h-34.36c-2.05 0-3.67-1.63-3.67-3.67V322.9c0-2.08 1.67-3.75 3.75-3.75h34.2c2.08 0 3.75 1.67 3.75 3.75v34.28c0 2.04-1.63 3.67-3.67 3.67zm-34.28-38.28c-.17 0-.33.17-.33.33v34.28c0 .17.08.25.25.25h34.36c.17 0 .25-.08.25-.25V322.9c0-.16-.17-.33-.33-.33z" stroke="#fff" stroke-opacity="0" fill="#fff" fill-opacity="0"/><path d="M1138.03 341.7h-34.36c-2.04 0-3.67-1.62-3.67-3.67v-34.28c0-2.08 1.67-3.75 3.75-3.75h34.2c2.08 0 3.75 1.67 3.75 3.75v34.28c0 2.05-1.62 3.67-3.67 3.67zm-34.28-38.28c-.16 0-.33.17-.33.33v34.28c0 .17.08.25.25.25h34.36c.17 0 .25-.08.25-.25v-34.28c0-.16-.16-.33-.33-.33z" stroke="#fff" stroke-opacity="0" fill="#fff" fill-opacity="0"/><use xlink:href="#z" transform="matrix(1,0,0,1,1070,389) translate(46.01851851851852 17.77777777777778)"/><path d="M860.92 45.08V33.92l-3 1.4v-1.4l3.16-1.8h1.73v13.04zM868.3 45.08l4.26-11.47h-5.76v-1.55h7.67v1.4l-4.2 11.63zM877.12 33.03c.57-.4 1.1-.7 1.75-.92.6-.16 1.12-.23 1.74-.2.93-.05 1.75.27 2.4.93.64.73.92 1.58.86 2.55 0 .64-.12 1.18-.36 1.78-.38.85-.77 1.54-1.33 2.28-.64.9-1.73 2.32-3.28 4.17h5.45v1.58h-7.53v-1.4c1.35-1.67 2.38-3 3.1-4.02.62-.82 1.08-1.58 1.53-2.52.3-.6.46-1.18.46-1.86 0-1.3-.53-2-1.6-2-1.2.1-2.2.5-3.16 1.2zM887.63 45.26c-.34.02-.63-.1-.87-.32-.24-.24-.36-.54-.34-.88-.02-.64.48-1.18 1.12-1.2h.1c.32-.02.62.1.85.34.23.23.34.52.33.86.02.34-.1.64-.34.88-.25.24-.54.34-.87.32zM894.67 45.08V33.92l-3 1.4v-1.4l3.16-1.8h1.73v13.04zM905.4 33.3c-.87-.05-1.64.36-2.1 1.12-.57 1.14-.83 2.22-.8 3.5.83-.5 1.66-.75 2.63-.75 1-.04 1.86.35 2.48 1.1.7.83 1 1.75.93 2.8.06 1.17-.28 2.2-1.04 3.1-.77.8-1.73 1.2-2.83 1.15-1.27.1-2.42-.47-3.1-1.54-.8-1.55-1.12-3.05-1-4.8-.12-1.93.26-3.6 1.2-5.3.75-1.2 2-1.84 3.4-1.78.5.02.92.07 1.4.2.44.1.8.22 1.2.44v1.38c-.4-.18-.73-.3-1.15-.4-.4-.1-.77-.18-1.2-.23zm-.8 5.37c-.77 0-1.43.18-2.12.54v.14c-.07 1.23.1 2.27.52 3.4.3.7.94 1.12 1.7 1.1 1.26 0 1.88-.88 1.88-2.64.06-.7-.1-1.3-.5-1.87-.36-.47-.88-.7-1.47-.66zM911.63 45.26c-.33.02-.62-.1-.86-.32-.24-.24-.36-.54-.34-.88 0-.66.54-1.2 1.2-1.2.67 0 1.2.54 1.2 1.2.03.34-.1.64-.33.88-.24.23-.53.34-.87.32zM918.78 45.33c-1.32.07-2.48-.58-3.12-1.73-.85-1.63-1.18-3.2-1.07-5.04-.12-1.82.2-3.4 1.06-5.03.67-1.1 1.82-1.7 3.12-1.6 1.3-.07 2.42.58 3.06 1.7.84 1.63 1.17 3.2 1.07 5.04.1 1.83-.22 3.4-1.06 5.03-.65 1.1-1.78 1.7-3.06 1.63zm0-1.53c.78 0 1.43-.5 1.65-1.25.45-1.36.6-2.58.52-4 .1-1.44-.07-2.66-.52-4.02-.17-.57-.6-1-1.17-1.16-.92-.27-1.88.25-2.15 1.16-.43 1.37-.6 2.58-.52 4.02-.07 1.42.1 2.64.53 4 .23.76.9 1.25 1.68 1.25zM925.9 45.26c-.33.02-.62-.1-.86-.32-.25-.24-.36-.54-.34-.88 0-.66.53-1.2 1.2-1.2.67 0 1.2.54 1.2 1.2.02.34-.1.64-.33.88-.24.23-.53.34-.87.32zM933.04 45.33c-1.3.05-2.44-.6-3.07-1.73-.84-1.63-1.18-3.2-1.07-5.04-.1-1.82.23-3.4 1.07-5.03.66-1.1 1.8-1.68 3.07-1.62 1.3-.03 2.43.6 3.06 1.74.84 1.62 1.18 3.2 1.07 5.03.1 1.83-.23 3.4-1.07 5.03-.65 1.1-1.78 1.7-3.06 1.63zm0-1.53c.8 0 1.44-.5 1.66-1.25.45-1.36.6-2.58.52-4 .08-1.44-.07-2.66-.52-4-.18-.6-.6-1-1.17-1.18-.93-.27-1.88.25-2.16 1.17-.43 1.35-.6 2.57-.52 4-.07 1.43.08 2.65.52 4 .23.76.9 1.26 1.67 1.26zM860.92 75.87v-11.1l-3 1.42v-1.55l3.16-1.8h1.73v13.02zM868.3 75.87l4.26-11.45h-5.76v-1.56h7.67v1.38l-4.2 11.63zM877.12 63.83c.57-.4 1.1-.7 1.75-.92.58-.2 1.1-.28 1.74-.27.93-.07 1.74.24 2.4.9.62.7.9 1.52.86 2.46 0 .64-.12 1.18-.36 1.77-.37.85-.76 1.54-1.33 2.3-.64.9-1.73 2.3-3.28 4.18h5.45v1.54h-7.53v-1.4c1.35-1.68 2.38-3 3.1-4.02.6-.8 1.07-1.5 1.53-2.4.3-.58.46-1.16.46-1.83 0-1.3-.53-2-1.6-2-1.2.1-2.2.48-3.16 1.2zM887.63 76c-.65.04-1.2-.47-1.2-1.1v-.1c-.02-.33.1-.63.33-.87.24-.23.53-.34.87-.32.33 0 .62.1.86.33.23.24.35.54.33.88 0 .35-.1.64-.34.87-.24.24-.54.36-.87.34zM894.67 75.87v-11.1l-3 1.42v-1.55l3.16-1.8h1.73v13.02zM905.4 64.1c-.86-.05-1.64.35-2.1 1.1-.58 1.17-.83 2.27-.8 3.58.83-.52 1.66-.77 2.64-.78.96-.05 1.8.3 2.43 1.04.7.82 1 1.74.92 2.8.05 1.18-.3 2.2-1.05 3.1-.75.8-1.7 1.2-2.82 1.15-1.26.1-2.38-.47-3.06-1.53-.8-1.54-1.12-3.04-1-4.78-.12-1.95.26-3.63 1.2-5.33.72-1.23 1.96-1.9 3.38-1.85.5 0 .92.04 1.4.16.43.1.8.24 1.2.45v1.37c-.4-.17-.73-.28-1.15-.35-.4-.1-.76-.15-1.2-.15zm-.8 5.38c-.77.02-1.42.18-2.12.52v.16c-.07 1.22.1 2.26.52 3.4.3.7.94 1.1 1.7 1.1 1.26 0 1.88-.9 1.88-2.67.05-.7-.1-1.3-.5-1.88-.37-.45-.88-.68-1.47-.64zM911.63 76c-.64.04-1.18-.46-1.2-1.1v-.1c-.02-.33.1-.62.34-.87.5-.43 1.23-.43 1.73 0 .24.25.35.54.34.88.02.65-.48 1.2-1.12 1.2h-.1zM918.68 75.87v-11.1l-3.02 1.42v-1.55l3.16-1.8h1.73v13.02zM925.9 76c-.64.04-1.18-.46-1.2-1.1v-.1c-.02-.33.1-.62.34-.87.5-.43 1.22-.43 1.73 0 .24.25.35.54.34.88.03.65-.47 1.2-1.12 1.2h-.08zM933.04 76.14c-1.3.04-2.44-.6-3.07-1.75-.84-1.64-1.18-3.2-1.07-5.04-.1-1.83.23-3.4 1.07-5.04.64-1.12 1.78-1.75 3.07-1.7 1.3-.05 2.43.58 3.06 1.7.84 1.64 1.17 3.2 1.08 5.04.1 1.83-.23 3.4-1.08 5.05-.63 1.14-1.75 1.78-3.06 1.74zm0-1.53c.8 0 1.43-.5 1.66-1.23.44-1.36.6-2.6.52-4 .1-1.44-.08-2.67-.52-4.02-.18-.58-.6-1-1.17-1.16-.93-.28-1.88.23-2.16 1.15-.43 1.37-.6 2.58-.52 4-.07 1.43.1 2.65.52 4.02.23.75.9 1.24 1.67 1.24zM860.92 108.53v-11.1l-3 1.4v-1.54l3.16-1.8h1.73v13.03zM868.3 108.53l4.26-11.47h-5.76V95.5h7.67v1.4l-4.2 11.63zM877.12 96.5c.57-.42 1.1-.7 1.75-.94.58-.2 1.1-.3 1.74-.3.93-.06 1.74.25 2.4.9.63.74.92 1.58.86 2.55 0 .66-.12 1.2-.36 1.8-.37.86-.77 1.54-1.33 2.28-.64.92-1.73 2.3-3.28 4.18h5.45v1.57h-7.53v-1.4c1.35-1.7 2.38-3 3.1-4.02.6-.78 1.07-1.5 1.53-2.4.3-.6.45-1.18.46-1.88 0-1.3-.53-2-1.6-2-1.2.12-2.2.5-3.16 1.2zM887.63 108.7c-.34.03-.63-.08-.87-.3-.24-.25-.35-.55-.34-.9-.02-.63.48-1.17 1.12-1.2h.1c.32 0 .62.1.85.35.23.23.34.52.33.86.02.35-.1.65-.34.9-.25.22-.54.33-.87.3zM894.67 108.53v-11.1l-3 1.4v-1.54l3.16-1.8h1.73v13.03zM905.4 96.74c-.87-.04-1.64.37-2.1 1.13-.58 1.16-.84 2.27-.8 3.57.83-.52 1.66-.76 2.63-.77.97-.03 1.8.32 2.44 1.05.68.8.98 1.75.92 2.8.05 1.18-.3 2.2-1.05 3.1-.76.8-1.72 1.2-2.82 1.15-1.26.1-2.38-.48-3.06-1.55-.8-1.54-1.12-3.04-1-4.78-.12-1.95.26-3.63 1.2-5.33.73-1.22 1.96-1.88 3.38-1.84.5 0 .92.05 1.4.16.43.1.8.26 1.2.46v1.36c-.4-.16-.74-.27-1.14-.36-.4-.1-.77-.14-1.2-.14zm-.8 5.33c-.77.02-1.42.18-2.12.53v.16c-.07 1.22.1 2.26.52 3.4.3.7.94 1.1 1.7 1.1 1.26 0 1.88-.9 1.88-2.66.06-.7-.1-1.3-.5-1.86-.36-.46-.88-.7-1.47-.67zM911.63 108.7c-.33.03-.62-.08-.86-.3-.24-.25-.36-.55-.34-.9 0-.66.54-1.2 1.2-1.2.67 0 1.2.54 1.2 1.2.02.35-.1.65-.33.9-.24.22-.53.33-.87.3zM915.4 96.5c.56-.42 1.1-.7 1.75-.94.58-.2 1.1-.3 1.73-.3.93-.06 1.74.25 2.4.9.63.74.92 1.58.86 2.55 0 .66-.12 1.2-.36 1.8-.38.86-.78 1.54-1.33 2.28-.64.92-1.73 2.3-3.28 4.18h5.45v1.57h-7.52v-1.4c1.34-1.7 2.37-3 3.1-4.02.6-.78 1.03-1.5 1.5-2.4.3-.6.44-1.18.45-1.88 0-1.3-.55-2-1.62-2-1.2.12-2.2.5-3.16 1.2zM925.9 108.7c-.33.03-.62-.08-.86-.3-.24-.25-.36-.55-.35-.9 0-.66.53-1.2 1.2-1.2.67 0 1.2.54 1.2 1.2.02.35-.1.65-.33.9-.24.22-.53.33-.87.3zM933.04 108.78c-1.3.04-2.43-.6-3.07-1.73-.83-1.6-1.16-3.17-1.07-4.98-.1-1.83.23-3.4 1.07-5.03.64-1.13 1.77-1.76 3.07-1.72 1.3-.04 2.43.6 3.06 1.72.84 1.63 1.18 3.2 1.07 5.03.1 1.83-.23 3.4-1.07 5.04-.65 1.12-1.77 1.73-3.06 1.68zm0-1.53c.8 0 1.44-.5 1.66-1.25.45-1.36.6-2.58.52-4 .08-1.43-.07-2.66-.52-4.02-.18-.58-.6-1-1.17-1.16-.93-.26-1.88.25-2.16 1.16-.44 1.36-.6 2.6-.52 4-.07 1.44.1 2.66.52 4.02.23.76.9 1.25 1.67 1.25z" stroke="#fff" stroke-opacity="0" fill="#693cc5"/><path d="M942.85 52.28h-90.6c-1.05 0-2-.9-2-2.02V25.9c0-1.1.95-2 2-2h90.6c1.04 0 2 .9 2 2v24.36c0 1.1-.96 2.02-2 2.02zm-88.53-4h86.45v-20.4h-86.45zM942.85 84.2h-90.6c-1.05 0-2-.9-2-2V57.8c0-1.1.95-2 2-2h90.6c1.04 0 2 .9 2 2v24.4c0 1.1-.96 2-2 2zm-88.53-4h86.45V59.8h-86.45zM942.85 116.1h-90.6c-1.05 0-2-.9-2-2V89.73c0-1.1.95-2.02 2-2.02h90.6c1.04 0 2 .9 2 2.02v24.35c0 1.1-.96 2-2 2zm-88.53-4h86.45V91.73h-86.45z" stroke="#fff" stroke-opacity="0" fill="#693cc5"/><path d="M852.4 26.5h90.32v87.25H852.4V26.5z" stroke="#fff" stroke-opacity="0" stroke-width=".4" fill="#fff" fill-opacity="0"/><use xlink:href="#A" transform="matrix(1,0,0,1,820.2564102564103,125.1086614173021) translate(20.771604938271608 17.77777777777778)"/><use xlink:href="#B" transform="matrix(1,0,0,1,820.2564102564103,125.1086614173021) translate(86.14197530864197 17.77777777777778)"/><path d="M978.54 118.2" stroke="#5e5e5e" stroke-width="2" fill="none"/><path stroke="#5e5e5e" stroke-width=".05" fill="#5e5e5e"/><path d="M975.3 118.2l-14.26 4.63v-9.27z" stroke="#5e5e5e" stroke-width="2" fill="#5e5e5e"/><path d="M141 63.9h59.78" stroke="#5e5e5e" stroke-width="2" fill="none"/><path d="M141.03 64.9h-1.2l.17-.46V62.9h1.03z" stroke="#5e5e5e" stroke-width=".05" fill="#5e5e5e"/><path d="M216.05 63.9l-14.27 4.63v-9.27z" stroke="#5e5e5e" stroke-width="2" fill="#5e5e5e"/><path d="M334.64 58.22h39.58" stroke="#5e5e5e" stroke-width="2" fill="none"/><path d="M334.67 59.22h-1.07l.08-2h1z" stroke="#5e5e5e" stroke-width=".05" fill="#5e5e5e"/><path d="M389.5 58.22l-14.28 4.64V53.6z" stroke="#5e5e5e" stroke-width="2" fill="#5e5e5e"/><path d="M473.45 53.9h48.14a6 6 0 0 0 6-6V-50.4a6 6 0 0 1 6-6h30.63" stroke="#5e5e5e" stroke-width="2" fill="none"/><path d="M473.48 54.9h-1.06l.03-1-.06-1h1.08z" stroke="#5e5e5e" stroke-width=".05" fill="#5e5e5e"/><path d="M579.5-56.38l-14.27 4.63v-9.27z" stroke="#5e5e5e" stroke-width="2" fill="#5e5e5e"/><path d="M473.45 53.9h46.53a6 6 0 0 1 6 6v197.5a6 6 0 0 0 6 6H561" stroke="#5e5e5e" stroke-width="2" fill="none"/><path d="M473.48 54.9h-1.06l.03-1-.06-1h1.08z" stroke="#5e5e5e" stroke-width=".05" fill="#5e5e5e"/><path d="M576.26 263.4L562 268.03v-9.27z" stroke="#5e5e5e" stroke-width="2" fill="#5e5e5e"/><path d="M961.3-199.93h41.85" stroke="#5e5e5e" stroke-width="2" fill="none"/><path d="M961.32-198.93h-1.02v-2h1.02z" stroke="#5e5e5e" stroke-width=".05" fill="#5e5e5e"/><path d="M1018.4-199.93l-14.25 4.64v-9.26z" stroke="#5e5e5e" stroke-width="2" fill="#5e5e5e"/><path d="M961.3 361.5h19.9" stroke="#5e5e5e" stroke-width="2" fill="none"/><path d="M961.32 362.5h-1.02v-2h1.02z" stroke="#5e5e5e" stroke-width=".05" fill="#5e5e5e"/><path d="M996.45 361.5l-14.26 4.62v-9.27z" stroke="#5e5e5e" stroke-width="2" fill="#5e5e5e"/><path d="M1702-18.73l37.98 5.15v3.04c0 4.5-17.02 8.16-38 8.16-20.96 0-37.98-3.65-37.98-8.16v-3.3z" fill="#8c3123"/><path d="M1702 3.2c15.86 0 29.45-2.1 35.1-5.07l1.9-2.86.76-2.62v3.25l-12.46 48.42c0 3.03-11.32 5.43-25.3 5.43-13.95 0-25.28-2.4-25.28-5.43L1664.27-4.1v-3.2l2.86 5.54c5.74 2.9 19.18 4.97 34.88 4.97z" fill="#8c3123"/><path d="M1702-21.97c20.97 0 38 3.66 38 8.14 0 4.5-17.03 8.1-38 8.1s-38-3.58-38-8.1 17.03-8.14 38-8.14z" fill="#e05243"/><path d="M1702-.1c19.55 0 35.64-3.1 37.75-7.2l-12.46 48.4c0 3.03-11.34 5.45-25.3 5.45-13.97 0-25.3-2.42-25.3-5.44l-12.46-48.4c2.12 4.1 18.2 7.2 37.76 7.2z" fill="#e05243"/><g><use xlink:href="#C" transform="matrix(1,0,0,1,1663.9999999999998,49.75340754821519) translate(5.783950617283949 17.77777777777778)"/></g><defs><path fill="#333" d="M205 0l-28-72H64L36 0H1l101-248h38L239 0h-34zm-38-99l-47-123c-12 45-31 82-46 123h93" id="D"/><path fill="#333" d="M266 0h-40l-56-210L115 0H75L2-248h35L96-30l15-64 43-154h32l59 218 59-218h35" id="E"/><path fill="#333" d="M185-189c-5-48-123-54-124 2 14 75 158 14 163 119 3 78-121 87-175 55-17-10-28-26-33-46l33-7c5 56 141 63 141-1 0-78-155-14-162-118-5-82 145-84 179-34 5 7 8 16 11 25" id="F"/><g id="a"><use transform="matrix(0.06172839506172839,0,0,0.06172839506172839,0,0)" xlink:href="#D"/><use transform="matrix(0.06172839506172839,0,0,0.06172839506172839,14.012345679012345,0)" xlink:href="#E"/><use transform="matrix(0.06172839506172839,0,0,0.06172839506172839,34.938271604938265,0)" xlink:href="#F"/></g><path fill="#333" d="M96-169c-40 0-48 33-48 73s9 75 48 75c24 0 41-14 43-38l32 2c-6 37-31 61-74 61-59 0-76-41-82-99-10-93 101-131 147-64 4 7 5 14 7 22l-32 3c-4-21-16-35-41-35" id="G"/><path fill="#333" d="M24 0v-261h32V0H24" id="H"/><path fill="#333" d="M100-194c62-1 85 37 85 99 1 63-27 99-86 99S16-35 15-95c0-66 28-99 85-99zM99-20c44 1 53-31 53-75 0-43-8-75-51-75s-53 32-53 75 10 74 51 75" id="I"/><path fill="#333" d="M84 4C-5 8 30-112 23-190h32v120c0 31 7 50 39 49 72-2 45-101 50-169h31l1 190h-30c-1-10 1-25-2-33-11 22-28 36-60 37" id="J"/><path fill="#333" d="M85-194c31 0 48 13 60 33l-1-100h32l1 261h-30c-2-10 0-23-3-31C134-8 116 4 85 4 32 4 16-35 15-94c0-66 23-100 70-100zm9 24c-40 0-46 34-46 75 0 40 6 74 45 74 42 0 51-32 51-76 0-42-9-74-50-73" id="K"/><g id="b"><use transform="matrix(0.06172839506172839,0,0,0.06172839506172839,0,0)" xlink:href="#G"/><use transform="matrix(0.06172839506172839,0,0,0.06172839506172839,11.11111111111111,0)" xlink:href="#H"/><use transform="matrix(0.06172839506172839,0,0,0.06172839506172839,15.987654320987653,0)" xlink:href="#I"/><use transform="matrix(0.06172839506172839,0,0,0.06172839506172839,28.333333333333332,0)" xlink:href="#J"/><use transform="matrix(0.06172839506172839,0,0,0.06172839506172839,40.67901234567901,0)" xlink:href="#K"/></g><path fill="#333" d="M108 0H70L1-190h34L89-25l56-165h34" id="L"/><path fill="#333" d="M141-36C126-15 110 5 73 4 37 3 15-17 15-53c-1-64 63-63 125-63 3-35-9-54-41-54-24 1-41 7-42 31l-33-3c5-37 33-52 76-52 45 0 72 20 72 64v82c-1 20 7 32 28 27v20c-31 9-61-2-59-35zM48-53c0 20 12 33 32 33 41-3 63-29 60-74-43 2-92-5-92 41" id="M"/><path fill="#333" d="M24-231v-30h32v30H24zM24 0v-190h32V0H24" id="N"/><path fill="#333" d="M115-194c53 0 69 39 70 98 0 66-23 100-70 100C84 3 66-7 56-30L54 0H23l1-261h32v101c10-23 28-34 59-34zm-8 174c40 0 45-34 45-75 0-40-5-75-45-74-42 0-51 32-51 76 0 43 10 73 51 73" id="O"/><path fill="#333" d="M59-47c-2 24 18 29 38 22v24C64 9 27 4 27-40v-127H5v-23h24l9-43h21v43h35v23H59v120" id="P"/><path fill="#333" d="M179-190L93 31C79 59 56 82 12 73V49c39 6 53-20 64-50L1-190h34L92-34l54-156h33" id="Q"/><g id="c"><use transform="matrix(0.06172839506172839,0,0,0.06172839506172839,0,0)" xlink:href="#D"/><use transform="matrix(0.06172839506172839,0,0,0.06172839506172839,14.382716049382715,0)" xlink:href="#L"/><use transform="matrix(0.06172839506172839,0,0,0.06172839506172839,25.493827160493826,0)" xlink:href="#M"/><use transform="matrix(0.06172839506172839,0,0,0.06172839506172839,37.839506172839506,0)" xlink:href="#N"/><use transform="matrix(0.06172839506172839,0,0,0.06172839506172839,42.71604938271605,0)" xlink:href="#H"/><use transform="matrix(0.06172839506172839,0,0,0.06172839506172839,47.592592592592595,0)" xlink:href="#M"/><use transform="matrix(0.06172839506172839,0,0,0.06172839506172839,59.93827160493827,0)" xlink:href="#O"/><use transform="matrix(0.06172839506172839,0,0,0.06172839506172839,72.28395061728395,0)" xlink:href="#N"/><use transform="matrix(0.06172839506172839,0,0,0.06172839506172839,77.1604938271605,0)" xlink:href="#H"/><use transform="matrix(0.06172839506172839,0,0,0.06172839506172839,82.03703703703704,0)" xlink:href="#N"/><use transform="matrix(0.06172839506172839,0,0,0.06172839506172839,86.91358024691358,0)" xlink:href="#P"/><use transform="matrix(0.06172839506172839,0,0,0.06172839506172839,93.08641975308642,0)" xlink:href="#Q"/></g><path fill="#333" d="M209 0H11v-25l151-195H24v-28h176v25L50-27h159V0" id="R"/><path fill="#333" d="M117-194c89-4 53 116 60 194h-32v-121c0-31-8-49-39-48C34-167 62-67 57 0H25l-1-190h30c1 10-1 24 2 32 11-22 29-35 61-36" id="S"/><path fill="#333" d="M100-194c63 0 86 42 84 106H49c0 40 14 67 53 68 26 1 43-12 49-29l28 8c-11 28-37 45-77 45C44 4 14-33 15-96c1-61 26-98 85-98zm52 81c6-60-76-77-97-28-3 7-6 17-6 28h103" id="T"/><g id="d"><use transform="matrix(0.06172839506172839,0,0,0.06172839506172839,0,0)" xlink:href="#R"/><use transform="matrix(0.06172839506172839,0,0,0.06172839506172839,13.518518518518517,0)" xlink:href="#I"/><use transform="matrix(0.06172839506172839,0,0,0.06172839506172839,25.864197530864196,0)" xlink:href="#S"/><use transform="matrix(0.06172839506172839,0,0,0.06172839506172839,38.20987654320987,0)" xlink:href="#T"/></g><path fill="#333" d="M27 0v-27h64v-190l-56 39v-29l58-41h29v221h61V0H27" id="U"/><use transform="matrix(0.06172839506172839,0,0,0.06172839506172839,0,0)" xlink:href="#U" id="e"/><path fill="#333" d="M101-251c82-7 93 87 43 132L82-64C71-53 59-42 53-27h129V0H18c2-99 128-94 128-182 0-28-16-43-45-43s-46 15-49 41l-32-3c6-41 34-60 81-64" id="V"/><use transform="matrix(0.06172839506172839,0,0,0.06172839506172839,0,0)" xlink:href="#V" id="f"/><path fill="#333" d="M137 0h-34L2-248h35l83 218 83-218h36" id="W"/><path fill="#333" d="M30-248c87 1 191-15 191 75 0 78-77 80-158 76V0H30v-248zm33 125c57 0 124 11 124-50 0-59-68-47-124-48v98" id="X"/><path fill="#333" d="M212-179c-10-28-35-45-73-45-59 0-87 40-87 99 0 60 29 101 89 101 43 0 62-24 78-52l27 14C228-24 195 4 139 4 59 4 22-46 18-125c-6-104 99-153 187-111 19 9 31 26 39 46" id="Y"/><g id="g"><use transform="matrix(0.06172839506172839,0,0,0.06172839506172839,0,0)" xlink:href="#W"/><use transform="matrix(0.06172839506172839,0,0,0.06172839506172839,14.814814814814813,0)" xlink:href="#X"/><use transform="matrix(0.06172839506172839,0,0,0.06172839506172839,29.629629629629626,0)" xlink:href="#Y"/></g><path fill="#333" d="M16-82v-28h88v28H16" id="Z"/><use transform="matrix(0.06172839506172839,0,0,0.06172839506172839,0,0)" xlink:href="#Z" id="h"/><path fill="#333" d="M101-251c68 0 85 55 85 127S166 4 100 4C33 4 14-52 14-124c0-73 17-127 87-127zm-1 229c47 0 54-49 54-102s-4-102-53-102c-51 0-55 48-55 102 0 53 5 102 54 102" id="aa"/><path fill="#333" d="M33 0v-38h34V0H33" id="ab"/><path fill="#333" d="M0 4l72-265h28L28 4H0" id="ac"/><path fill="#333" d="M110-160c48 1 74 30 74 79 0 53-28 85-80 85-65 0-83-55-86-122-5-90 50-162 133-122 14 7 22 21 27 39l-31 6c-5-40-67-38-82-6-9 19-15 44-15 74 11-20 30-34 60-33zm-7 138c34 0 49-23 49-58s-16-56-50-56c-29 0-50 16-49 49 1 36 15 65 50 65" id="ad"/><g id="i"><use transform="matrix(0.06172839506172839,0,0,0.06172839506172839,0,0)" xlink:href="#U"/><use transform="matrix(0.06172839506172839,0,0,0.06172839506172839,12.345679012345679,0)" xlink:href="#aa"/><use transform="matrix(0.06172839506172839,0,0,0.06172839506172839,24.691358024691358,0)" xlink:href="#ab"/><use transform="matrix(0.06172839506172839,0,0,0.06172839506172839,30.864197530864196,0)" xlink:href="#U"/><use transform="matrix(0.06172839506172839,0,0,0.06172839506172839,43.20987654320987,0)" xlink:href="#aa"/><use transform="matrix(0.06172839506172839,0,0,0.06172839506172839,55.55555555555555,0)" xlink:href="#ab"/><use transform="matrix(0.06172839506172839,0,0,0.06172839506172839,61.72839506172839,0)" xlink:href="#aa"/><use transform="matrix(0.06172839506172839,0,0,0.06172839506172839,74.07407407407408,0)" xlink:href="#ab"/><use transform="matrix(0.06172839506172839,0,0,0.06172839506172839,80.24691358024691,0)" xlink:href="#aa"/><use transform="matrix(0.06172839506172839,0,0,0.06172839506172839,92.5925925925926,0)" xlink:href="#ac"/><use transform="matrix(0.06172839506172839,0,0,0.06172839506172839,98.76543209876543,0)" xlink:href="#U"/><use transform="matrix(0.06172839506172839,0,0,0.06172839506172839,111.11111111111111,0)" xlink:href="#ad"/></g><g id="j"><use transform="matrix(0.06172839506172839,0,0,0.06172839506172839,0,0)" xlink:href="#X"/><use transform="matrix(0.06172839506172839,0,0,0.06172839506172839,14.814814814814813,0)" xlink:href="#J"/><use transform="matrix(0.06172839506172839,0,0,0.06172839506172839,27.160493827160494,0)" xlink:href="#O"/><use transform="matrix(0.06172839506172839,0,0,0.06172839506172839,39.50617283950617,0)" xlink:href="#H"/><use transform="matrix(0.06172839506172839,0,0,0.06172839506172839,44.382716049382715,0)" xlink:href="#N"/><use transform="matrix(0.06172839506172839,0,0,0.06172839506172839,49.25925925925926,0)" xlink:href="#G"/></g><g id="k"><use transform="matrix(0.06172839506172839,0,0,0.06172839506172839,0,0)" xlink:href="#F"/><use transform="matrix(0.06172839506172839,0,0,0.06172839506172839,14.814814814814813,0)" xlink:href="#J"/><use transform="matrix(0.06172839506172839,0,0,0.06172839506172839,27.160493827160494,0)" xlink:href="#O"/><use transform="matrix(0.06172839506172839,0,0,0.06172839506172839,39.50617283950617,0)" xlink:href="#S"/><use transform="matrix(0.06172839506172839,0,0,0.06172839506172839,51.85185185185185,0)" xlink:href="#T"/><use transform="matrix(0.06172839506172839,0,0,0.06172839506172839,64.19753086419753,0)" xlink:href="#P"/></g><path fill="#333" d="M114-163C36-179 61-72 57 0H25l-1-190h30c1 12-1 29 2 39 6-27 23-49 58-41v29" id="ae"/><g id="l"><use transform="matrix(0.06172839506172839,0,0,0.06172839506172839,0,0)" xlink:href="#X"/><use transform="matrix(0.06172839506172839,0,0,0.06172839506172839,14.814814814814813,0)" xlink:href="#ae"/><use transform="matrix(0.06172839506172839,0,0,0.06172839506172839,22.160493827160494,0)" xlink:href="#N"/><use transform="matrix(0.06172839506172839,0,0,0.06172839506172839,27.037037037037038,0)" xlink:href="#L"/><use transform="matrix(0.06172839506172839,0,0,0.06172839506172839,38.14814814814815,0)" xlink:href="#M"/><use transform="matrix(0.06172839506172839,0,0,0.06172839506172839,50.49382716049383,0)" xlink:href="#P"/><use transform="matrix(0.06172839506172839,0,0,0.06172839506172839,56.66666666666667,0)" xlink:href="#T"/></g><g id="m"><use transform="matrix(0.06172839506172839,0,0,0.06172839506172839,0,0)" xlink:href="#D"/><use transform="matrix(0.06172839506172839,0,0,0.06172839506172839,14.814814814814813,0)" xlink:href="#J"/><use transform="matrix(0.06172839506172839,0,0,0.06172839506172839,27.160493827160494,0)" xlink:href="#P"/><use transform="matrix(0.06172839506172839,0,0,0.06172839506172839,33.333333333333336,0)" xlink:href="#I"/></g><path fill="#333" d="M177-190C167-65 218 103 67 71c-23-6-38-20-44-43l32-5c15 47 100 32 89-28v-30C133-14 115 1 83 1 29 1 15-40 15-95c0-56 16-97 71-98 29-1 48 16 59 35 1-10 0-23 2-32h30zM94-22c36 0 50-32 50-73 0-42-14-75-50-75-39 0-46 34-46 75s6 73 46 73" id="af"/><g id="n"><use transform="matrix(0.06172839506172839,0,0,0.06172839506172839,0,0)" xlink:href="#F"/><use transform="matrix(0.06172839506172839,0,0,0.06172839506172839,14.814814814814813,0)" xlink:href="#G"/><use transform="matrix(0.06172839506172839,0,0,0.06172839506172839,25.925925925925924,0)" xlink:href="#M"/><use transform="matrix(0.06172839506172839,0,0,0.06172839506172839,38.2716049382716,0)" xlink:href="#H"/><use transform="matrix(0.06172839506172839,0,0,0.06172839506172839,43.148148148148145,0)" xlink:href="#N"/><use transform="matrix(0.06172839506172839,0,0,0.06172839506172839,48.02469135802469,0)" xlink:href="#S"/><use transform="matrix(0.06172839506172839,0,0,0.06172839506172839,60.37037037037037,0)" xlink:href="#af"/></g><path fill="#333" d="M115-194c55 1 70 41 70 98S169 2 115 4C84 4 66-9 55-30l1 105H24l-1-265h31l2 30c10-21 28-34 59-34zm-8 174c40 0 45-34 45-75s-6-73-45-74c-42 0-51 32-51 76 0 43 10 73 51 73" id="ag"/><g id="o"><use transform="matrix(0.06172839506172839,0,0,0.06172839506172839,0,0)" xlink:href="#af"/><use transform="matrix(0.06172839506172839,0,0,0.06172839506172839,12.345679012345679,0)" xlink:href="#ae"/><use transform="matrix(0.06172839506172839,0,0,0.06172839506172839,19.691358024691358,0)" xlink:href="#I"/><use transform="matrix(0.06172839506172839,0,0,0.06172839506172839,32.03703703703704,0)" xlink:href="#J"/><use transform="matrix(0.06172839506172839,0,0,0.06172839506172839,44.382716049382715,0)" xlink:href="#ag"/></g><path fill="#dd3522" d="M185-189c-5-48-123-54-124 2 14 75 158 14 163 119 3 78-121 87-175 55-17-10-28-26-33-46l33-7c5 56 141 63 141-1 0-78-155-14-162-118-5-82 145-84 179-34 5 7 8 16 11 25" id="ah"/><path fill="#dd3522" d="M100-194c63 0 86 42 84 106H49c0 40 14 67 53 68 26 1 43-12 49-29l28 8c-11 28-37 45-77 45C44 4 14-33 15-96c1-61 26-98 85-98zm52 81c6-60-76-77-97-28-3 7-6 17-6 28h103" id="ai"/><path fill="#dd3522" d="M96-169c-40 0-48 33-48 73s9 75 48 75c24 0 41-14 43-38l32 2c-6 37-31 61-74 61-59 0-76-41-82-99-10-93 101-131 147-64 4 7 5 14 7 22l-32 3c-4-21-16-35-41-35" id="aj"/><path fill="#dd3522" d="M84 4C-5 8 30-112 23-190h32v120c0 31 7 50 39 49 72-2 45-101 50-169h31l1 190h-30c-1-10 1-25-2-33-11 22-28 36-60 37" id="ak"/><path fill="#dd3522" d="M114-163C36-179 61-72 57 0H25l-1-190h30c1 12-1 29 2 39 6-27 23-49 58-41v29" id="al"/><path fill="#dd3522" d="M24-231v-30h32v30H24zM24 0v-190h32V0H24" id="am"/><path fill="#dd3522" d="M59-47c-2 24 18 29 38 22v24C64 9 27 4 27-40v-127H5v-23h24l9-43h21v43h35v23H59v120" id="an"/><path fill="#dd3522" d="M179-190L93 31C79 59 56 82 12 73V49c39 6 53-20 64-50L1-190h34L92-34l54-156h33" id="ao"/><g id="p"><use transform="matrix(0.05,0,0,0.05,0,0)" xlink:href="#ah"/><use transform="matrix(0.05,0,0,0.05,12,0)" xlink:href="#ai"/><use transform="matrix(0.05,0,0,0.05,22,0)" xlink:href="#aj"/><use transform="matrix(0.05,0,0,0.05,31,0)" xlink:href="#ak"/><use transform="matrix(0.05,0,0,0.05,41,0)" xlink:href="#al"/><use transform="matrix(0.05,0,0,0.05,46.95,0)" xlink:href="#am"/><use transform="matrix(0.05,0,0,0.05,50.900000000000006,0)" xlink:href="#an"/><use transform="matrix(0.05,0,0,0.05,55.900000000000006,0)" xlink:href="#ao"/></g><path fill="#dd3522" d="M143 4C61 4 22-44 18-125c-5-107 100-154 193-111 17 8 29 25 37 43l-32 9c-13-25-37-40-76-40-61 0-88 39-88 99 0 61 29 100 91 101 35 0 62-11 79-27v-45h-74v-28h105v86C228-13 192 4 143 4" id="ap"/><path fill="#dd3522" d="M100-194c62-1 85 37 85 99 1 63-27 99-86 99S16-35 15-95c0-66 28-99 85-99zM99-20c44 1 53-31 53-75 0-43-8-75-51-75s-53 32-53 75 10 74 51 75" id="aq"/><path fill="#dd3522" d="M115-194c55 1 70 41 70 98S169 2 115 4C84 4 66-9 55-30l1 105H24l-1-265h31l2 30c10-21 28-34 59-34zm-8 174c40 0 45-34 45-75s-6-73-45-74c-42 0-51 32-51 76 0 43 10 73 51 73" id="ar"/><g id="q"><use transform="matrix(0.05,0,0,0.05,0,0)" xlink:href="#ap"/><use transform="matrix(0.05,0,0,0.05,14,0)" xlink:href="#al"/><use transform="matrix(0.05,0,0,0.05,19.95,0)" xlink:href="#aq"/><use transform="matrix(0.05,0,0,0.05,29.950000000000003,0)" xlink:href="#ak"/><use transform="matrix(0.05,0,0,0.05,39.95,0)" xlink:href="#ar"/></g><path fill="#333" d="M232-93c-1 65-40 97-104 97C67 4 28-28 28-90v-158h33c8 89-33 224 67 224 102 0 64-133 71-224h33v155" id="as"/><path fill="#333" d="M135-143c-3-34-86-38-87 0 15 53 115 12 119 90S17 21 10-45l28-5c4 36 97 45 98 0-10-56-113-15-118-90-4-57 82-63 122-42 12 7 21 19 24 35" id="at"/><g id="r"><use transform="matrix(0.06172839506172839,0,0,0.06172839506172839,0,0)" xlink:href="#as"/><use transform="matrix(0.06172839506172839,0,0,0.06172839506172839,15.987654320987653,0)" xlink:href="#at"/><use transform="matrix(0.06172839506172839,0,0,0.06172839506172839,27.098765432098766,0)" xlink:href="#T"/><use transform="matrix(0.06172839506172839,0,0,0.06172839506172839,39.44444444444444,0)" xlink:href="#ae"/><use transform="matrix(0.06172839506172839,0,0,0.06172839506172839,46.79012345679012,0)" xlink:href="#at"/></g><g id="s"><use transform="matrix(0.06172839506172839,0,0,0.06172839506172839,0,0)" xlink:href="#N"/><use transform="matrix(0.06172839506172839,0,0,0.06172839506172839,4.876543209876543,0)" xlink:href="#S"/><use transform="matrix(0.06172839506172839,0,0,0.06172839506172839,17.22222222222222,0)" xlink:href="#P"/><use transform="matrix(0.06172839506172839,0,0,0.06172839506172839,23.39506172839506,0)" xlink:href="#T"/><use transform="matrix(0.06172839506172839,0,0,0.06172839506172839,35.74074074074074,0)" xlink:href="#ae"/><use transform="matrix(0.06172839506172839,0,0,0.06172839506172839,43.08641975308642,0)" xlink:href="#S"/><use transform="matrix(0.06172839506172839,0,0,0.06172839506172839,55.432098765432094,0)" xlink:href="#T"/><use transform="matrix(0.06172839506172839,0,0,0.06172839506172839,67.77777777777777,0)" xlink:href="#P"/></g><path fill="#333" d="M206 0h-36l-40-164L89 0H53L-1-190h32L70-26l43-164h34l41 164 42-164h31" id="au"/><g id="t"><use transform="matrix(0.06172839506172839,0,0,0.06172839506172839,0,0)" xlink:href="#af"/><use transform="matrix(0.06172839506172839,0,0,0.06172839506172839,12.345679012345679,0)" xlink:href="#M"/><use transform="matrix(0.06172839506172839,0,0,0.06172839506172839,24.691358024691358,0)" xlink:href="#P"/><use transform="matrix(0.06172839506172839,0,0,0.06172839506172839,30.864197530864196,0)" xlink:href="#T"/><use transform="matrix(0.06172839506172839,0,0,0.06172839506172839,43.20987654320987,0)" xlink:href="#au"/><use transform="matrix(0.06172839506172839,0,0,0.06172839506172839,59.197530864197525,0)" xlink:href="#M"/><use transform="matrix(0.06172839506172839,0,0,0.06172839506172839,71.5432098765432,0)" xlink:href="#Q"/></g><g id="u"><use transform="matrix(0.06172839506172839,0,0,0.06172839506172839,0,0)" xlink:href="#W"/><use transform="matrix(0.06172839506172839,0,0,0.06172839506172839,14.814814814814813,0)" xlink:href="#X"/><use transform="matrix(0.06172839506172839,0,0,0.06172839506172839,29.629629629629626,0)" xlink:href="#Y"/></g><path fill="#333" d="M190 0L58-211 59 0H30v-248h39L202-35l-2-213h31V0h-41" id="av"/><path fill="#333" d="M127-220V0H93v-220H8v-28h204v28h-85" id="aw"/><g id="v"><use transform="matrix(0.06172839506172839,0,0,0.06172839506172839,0,0)" xlink:href="#av"/><use transform="matrix(0.06172839506172839,0,0,0.06172839506172839,15.987654320987653,0)" xlink:href="#D"/><use transform="matrix(0.06172839506172839,0,0,0.06172839506172839,29.1358024691358,0)" xlink:href="#aw"/></g><path fill="#333" d="M143 0L79-87 56-68V0H24v-261h32v163l83-92h37l-77 82L181 0h-38" id="ax"/><g id="w"><use transform="matrix(0.06172839506172839,0,0,0.06172839506172839,0,0)" xlink:href="#av"/><use transform="matrix(0.06172839506172839,0,0,0.06172839506172839,15.987654320987653,0)" xlink:href="#T"/><use transform="matrix(0.06172839506172839,0,0,0.06172839506172839,28.333333333333332,0)" xlink:href="#P"/><use transform="matrix(0.06172839506172839,0,0,0.06172839506172839,34.50617283950617,0)" xlink:href="#au"/><use transform="matrix(0.06172839506172839,0,0,0.06172839506172839,50.49382716049382,0)" xlink:href="#I"/><use transform="matrix(0.06172839506172839,0,0,0.06172839506172839,62.8395061728395,0)" xlink:href="#ae"/><use transform="matrix(0.06172839506172839,0,0,0.06172839506172839,70.18518518518518,0)" xlink:href="#ax"/></g><path fill="#333" d="M30 0v-248h33v221h125V0H30" id="ay"/><g id="x"><use transform="matrix(0.06172839506172839,0,0,0.06172839506172839,0,0)" xlink:href="#ay"/><use transform="matrix(0.06172839506172839,0,0,0.06172839506172839,12.345679012345679,0)" xlink:href="#I"/><use transform="matrix(0.06172839506172839,0,0,0.06172839506172839,24.691358024691358,0)" xlink:href="#M"/><use transform="matrix(0.06172839506172839,0,0,0.06172839506172839,37.03703703703704,0)" xlink:href="#K"/></g><path fill="#333" d="M160-131c35 5 61 23 61 61C221 17 115-2 30 0v-248c76 3 177-17 177 60 0 33-19 50-47 57zm-97-11c50-1 110 9 110-42 0-47-63-36-110-37v79zm0 115c55-2 124 14 124-45 0-56-70-42-124-44v89" id="az"/><g id="y"><use transform="matrix(0.06172839506172839,0,0,0.06172839506172839,0,0)" xlink:href="#az"/><use transform="matrix(0.06172839506172839,0,0,0.06172839506172839,14.814814814814813,0)" xlink:href="#M"/><use transform="matrix(0.06172839506172839,0,0,0.06172839506172839,27.160493827160494,0)" xlink:href="#H"/><use transform="matrix(0.06172839506172839,0,0,0.06172839506172839,32.03703703703704,0)" xlink:href="#M"/><use transform="matrix(0.06172839506172839,0,0,0.06172839506172839,44.382716049382715,0)" xlink:href="#S"/><use transform="matrix(0.06172839506172839,0,0,0.06172839506172839,56.72839506172839,0)" xlink:href="#G"/><use transform="matrix(0.06172839506172839,0,0,0.06172839506172839,67.8395061728395,0)" xlink:href="#T"/><use transform="matrix(0.06172839506172839,0,0,0.06172839506172839,80.18518518518519,0)" xlink:href="#ae"/></g><g id="z"><use transform="matrix(0.06172839506172839,0,0,0.06172839506172839,0,0)" xlink:href="#au"/><use transform="matrix(0.06172839506172839,0,0,0.06172839506172839,15.987654320987653,0)" xlink:href="#au"/><use transform="matrix(0.06172839506172839,0,0,0.06172839506172839,31.975308641975307,0)" xlink:href="#au"/></g><path fill="#333" d="M233-177c-1 41-23 64-60 70L243 0h-38l-65-103H63V0H30v-248c88 3 205-21 203 71zM63-129c60-2 137 13 137-47 0-61-80-42-137-45v92" id="aA"/><g id="A"><use transform="matrix(0.06172839506172839,0,0,0.06172839506172839,0,0)" xlink:href="#aA"/><use transform="matrix(0.06172839506172839,0,0,0.06172839506172839,15.987654320987653,0)" xlink:href="#I"/><use transform="matrix(0.06172839506172839,0,0,0.06172839506172839,28.333333333333332,0)" xlink:href="#J"/><use transform="matrix(0.06172839506172839,0,0,0.06172839506172839,40.67901234567901,0)" xlink:href="#P"/><use transform="matrix(0.06172839506172839,0,0,0.06172839506172839,46.851851851851855,0)" xlink:href="#T"/></g><g id="B"><use transform="matrix(0.06172839506172839,0,0,0.06172839506172839,0,0)" xlink:href="#P"/><use transform="matrix(0.06172839506172839,0,0,0.06172839506172839,6.172839506172839,0)" xlink:href="#M"/><use transform="matrix(0.06172839506172839,0,0,0.06172839506172839,18.51851851851852,0)" xlink:href="#O"/><use transform="matrix(0.06172839506172839,0,0,0.06172839506172839,30.864197530864196,0)" xlink:href="#H"/><use transform="matrix(0.06172839506172839,0,0,0.06172839506172839,35.74074074074074,0)" xlink:href="#T"/></g><g id="C"><use transform="matrix(0.06172839506172839,0,0,0.06172839506172839,0,0)" xlink:href="#O"/><use transform="matrix(0.06172839506172839,0,0,0.06172839506172839,12.345679012345679,0)" xlink:href="#J"/><use transform="matrix(0.06172839506172839,0,0,0.06172839506172839,24.691358024691358,0)" xlink:href="#G"/><use transform="matrix(0.06172839506172839,0,0,0.06172839506172839,35.80246913580247,0)" xlink:href="#ax"/><use transform="matrix(0.06172839506172839,0,0,0.06172839506172839,46.91358024691358,0)" xlink:href="#T"/><use transform="matrix(0.06172839506172839,0,0,0.06172839506172839,59.25925925925926,0)" xlink:href="#P"/></g></defs></g></svg>